<svg t="1717319095679" class="icon" viewBox="0 0 1024 1024" version="1.1" xmlns="http://www.w3.org/2000/svg" p-id="7988" width="32" height="32"><path d="M227.84 525.312c23.552-21.504 47.104-43.52 70.656-65.024 24.064-22.016 48.64-44.544 72.704-67.072 19.968-18.944 40.448-37.376 60.416-56.32 17.408-15.872 29.184-27.136 35.84-32.768 18.944-16.896 38.4-25.6 58.368-26.112 19.968-0.512 39.424 8.192 59.904 26.112 4.608 3.584 14.848 13.824 31.744 29.184 16.384 15.872 36.352 34.304 59.392 55.808s47.104 44.032 73.216 68.608l0.512 0.512c22.528-7.168 46.592-10.752 71.68-10.752 39.424 0 76.8 9.728 109.568 26.624-5.12-5.12-10.752-9.728-16.384-15.36-19.968-18.432-39.424-37.376-58.88-56.32-21.504-20.992-43.52-41.984-65.536-62.976-22.016-20.992-44.032-41.984-65.536-62.976-19.456-18.944-38.912-37.376-58.88-56.32-17.408-16.384-32.256-30.72-44.032-42.496-12.288-11.776-19.968-18.944-24.064-22.016-19.968-18.944-43.52-28.16-71.68-27.648-28.16 0.512-54.272 12.288-78.336 35.328-3.072 3.072-14.336 13.824-33.792 31.744s-42.496 39.424-69.632 64.512c-27.136 25.088-56.32 52.224-87.552 81.408-29.696 27.648-58.88 54.784-88.576 81.92-23.552 21.504-47.104 43.52-70.656 65.024-19.456 18.432-31.744 29.184-35.328 33.28-10.24 9.728-15.36 22.016-16.384 38.4-0.512 15.872 5.632 29.696 17.92 40.96 11.264 10.24 25.088 14.848 40.96 14.336 15.872-0.512 28.672-4.608 37.888-12.288 3.072-2.56 12.288-10.752 28.16-25.088 16.384-14.848 34.816-32.256 56.32-52.224z" fill="#4084DF" p-id="7989"></path><path d="M583.168 685.568c0-83.456 43.008-156.672 107.52-199.168-57.856-53.248-105.472-97.28-106.496-97.792-17.92-16.384-34.816-29.696-56.832-29.696-22.528 0-44.544 15.36-60.416 29.696-2.048 2.56-246.784 224.256-299.008 271.872v202.24c0 8.192 3.072 16.896 9.728 23.552 6.656 6.656 14.848 9.728 23.04 9.728h185.344c4.096 0 8.192-1.536 11.776-5.12 3.072-3.072 5.12-7.168 5.12-11.776v-144.384c0-4.096 1.536-8.192 4.608-11.776 3.072-3.072 7.168-5.12 11.776-5.12h166.4c-1.536-10.752-2.56-21.504-2.56-32.256zM761.344 568.832h116.224c10.752 0 19.456-8.704 19.456-19.456 0-10.752-8.704-19.456-19.456-19.456h-116.224c-10.752 0-19.456 8.704-19.456 19.456 0 10.752 8.704 19.456 19.456 19.456z m174.592-19.456H916.48v19.456c0 10.752-8.704 19.456-19.456 19.456h-155.136c-10.752 0-19.456-8.704-19.456-19.456v-19.456h-19.456c-21.504 0-38.912 17.408-38.912 38.912v251.904c0 21.504 17.408 38.912 38.912 38.912h232.96c21.504 0 38.912-17.408 38.912-38.912v-251.904c-0.512-21.504-17.92-38.912-38.912-38.912z m-38.912 252.416h-58.88v20.992c0 7.168-5.632 17.92-19.456 17.92-13.312 0-19.456-10.752-19.456-17.92v-20.992h-57.856c-10.752 0-19.456-8.704-19.456-19.456 0-10.752 8.704-19.456 19.456-19.456h57.856v-19.456h-38.4c-10.752 0-19.456-8.704-19.456-19.456 0-10.752 8.704-19.456 19.456-19.456h38.4v-9.216l-53.76-48.128c-5.12-4.608-5.12-12.288 0-16.896 5.12-4.608 13.312-4.608 18.432 0l54.272 48.128 55.296-48.64c5.12-4.608 13.824-4.608 18.944 0s5.12 12.8 0 17.408l-54.784 49.152v8.704h39.424c10.752 0 19.456 8.704 19.456 19.456 0 10.752-8.704 19.456-19.456 19.456h-39.424v19.456h58.88c10.752 0 19.456 8.704 19.456 19.456 0.512 10.24-8.192 18.944-18.944 18.944z" fill="#4084DF" p-id="7990"></path></svg>